<svg width="16" height="16" viewBox="0 0 16 16" fill="none" xmlns="http://www.w3.org/2000/svg">
<g clip-path="url(#clip0_218_2)">
<rect width="16" height="16" fill="white"/>
<path d="M-11 -1H19V16H-11V-1Z" fill="url(#paint0_radial_218_2)"/>
<path d="M11.3503 2.25711C11.0737 2.21992 10.7936 2.29414 10.5717 2.46343C10.3498 2.63273 10.2043 2.88325 10.1671 3.15987C10.1299 3.43648 10.2041 3.71655 10.3734 3.93844C10.5427 4.16034 10.7932 4.3059 11.0698 4.34309C11.3464 4.38029 11.6265 4.30607 11.8484 4.13677C12.0703 3.96747 12.2159 3.71696 12.2531 3.44034C12.2902 3.16372 12.216 2.88366 12.0467 2.66176C11.8774 2.43986 11.6269 2.29431 11.3503 2.25711ZM6.37638 3.71202C6.11563 3.67696 5.33339 3.57178 5.7497 4.42415L6.7379 6.94617L4.91267 6.70075C4.62334 6.66504 4.35942 6.73255 4.09537 6.85632C3.41305 5.56575 2.62043 5.91684 1.79414 6.28144C1.33917 6.48254 0.873077 6.68746 0.40985 6.62624C0.341077 6.61912 0.27218 6.63851 0.217212 6.68045C0.162243 6.72239 0.125345 6.78371 0.114043 6.85192C0.106927 6.9207 0.126315 6.98959 0.168254 7.04456C0.210192 7.09953 0.271521 7.13643 0.339731 7.14773C0.72909 7.22132 1.19447 7.16391 1.65998 7.10545C2.36844 7.01701 3.07468 6.92933 3.50793 7.30826C3.38366 7.49011 3.13783 8.05488 3.06771 8.57637L2.85387 10.151C2.6104 10.3349 2.44133 10.2261 2.2694 10.1149C2.1325 10.0275 1.99247 9.93962 1.81437 10.0006L0.357677 12.9372C0.322618 13.1979 0.72522 13.3073 0.87216 13.0595L1.90066 11.3332C2.68082 11.4381 4.35172 10.8727 5.01345 9.89984L9.04517 11.5038L11.3021 14.4618C11.4799 14.6949 11.9681 14.4049 11.8358 14.1248L10.2284 10.601L12.665 8.27403C12.8535 8.8303 13.1111 8.86494 13.6232 8.9338L13.6378 8.93576L14.1585 9.80215C14.4951 10.3624 15.4319 9.96594 15.1673 9.40687L13.7746 6.60748L13.9884 6.32829C14.0793 6.14194 13.6906 5.67662 13.5371 5.73668L11.2407 7.02068L9.88588 4.38247C9.84519 4.31501 9.78988 4.25755 9.72401 4.21433C9.65815 4.1711 9.58342 4.14322 9.50534 4.13274L6.37638 3.71202ZM9.7113 6.54958L10.1276 7.40194L7.01886 9.01844C6.95652 9.05114 6.88825 9.07101 6.8181 9.07685C6.74794 9.08269 6.67733 9.0744 6.61043 9.05246C6.54354 9.03052 6.48173 8.99537 6.42866 8.94912C6.3756 8.90286 6.33235 8.84642 6.30149 8.78314C6.27063 8.71987 6.25278 8.65105 6.249 8.58075C6.24522 8.51045 6.25558 8.44011 6.27947 8.37389C6.30336 8.30767 6.3403 8.24692 6.3881 8.19523C6.43589 8.14354 6.49357 8.10197 6.55773 8.07298L9.7113 6.54958Z" fill="#B9E425"/>
</g>
<defs>
<radialGradient id="paint0_radial_218_2" cx="0" cy="0" r="1" gradientUnits="userSpaceOnUse" gradientTransform="translate(23.7389 3.488) rotate(90) scale(8.5 15)">
<stop offset="0.245" stop-color="#3A4149"/>
<stop offset="1" stop-color="#101214"/>
</radialGradient>
<clipPath id="clip0_218_2">
<rect width="16" height="16" fill="white"/>
</clipPath>
</defs>
</svg>
