<svg width="236" height="185" viewBox="0 0 236 185" fill="none" xmlns="http://www.w3.org/2000/svg">
<path d="M215.075 115.846H221.473L217.989 133.381H220.102C223.834 133.381 226.404 134.314 227.813 136.18C229.222 138.008 229.736 140.655 229.355 144.12L228.442 152.402H221.759L223.015 144.12C223.282 142.559 223.32 141.34 223.129 140.464C222.977 139.55 222.596 138.903 221.987 138.522C221.416 138.141 220.54 137.951 219.359 137.951H217.075L214.162 152.402H207.764L215.075 115.846ZM218.331 133.439C220.692 130.887 222.691 128.26 224.329 125.556C226.004 122.814 227.566 119.578 229.013 115.846H235.924C234.211 120.301 232.402 124.09 230.498 127.213C228.632 130.335 226.176 133.42 223.129 136.466L218.331 133.439Z" fill="#B9E425"/>
<path d="M195.426 152.916C192.189 152.916 189.733 152.288 188.057 151.032C186.382 149.775 185.373 147.757 185.03 144.977C184.687 142.159 184.992 138.389 185.944 133.667C186.858 129.136 187.981 125.556 189.314 122.929C190.647 120.263 192.341 118.359 194.398 117.217C196.454 116.036 199.044 115.446 202.166 115.446C204.375 115.446 206.507 115.751 208.563 116.36L207.25 120.472C205.993 120.168 204.622 120.016 203.137 120.016C200.852 120.016 199.063 120.511 197.768 121.501C196.473 122.453 195.464 123.938 194.74 125.956C194.017 127.936 193.255 130.849 192.456 134.695C191.732 138.427 191.313 141.207 191.199 143.035C191.123 144.825 191.485 146.157 192.284 147.033C193.122 147.909 194.626 148.347 196.797 148.347C198.358 148.347 200.015 148.118 201.766 147.661L202.109 152.003C200.015 152.612 197.787 152.916 195.426 152.916Z" fill="#B9E425"/>
<path d="M155.156 152.402C157.137 145.281 159.44 138.56 162.068 132.239C164.734 125.918 167.609 120.453 170.693 115.846H176.634C178.042 120.491 178.842 125.975 179.033 132.296C179.223 138.617 178.842 145.32 177.89 152.402H171.321C172.235 145.472 172.768 139.189 172.921 133.553C173.073 127.917 172.807 123.138 172.121 119.216L174.234 119.673C172.026 123.633 169.855 128.412 167.723 134.01C165.59 139.608 163.61 145.738 161.782 152.402H155.156ZM176.634 138.694L175.72 143.263H161.097L162.011 138.694H176.634Z" fill="#B9E425"/>
<path d="M147.731 115.846C151.12 115.846 153.614 116.931 155.214 119.102C156.851 121.272 157.27 124.299 156.47 128.184C155.785 131.611 154.3 134.2 152.015 135.952C149.73 137.665 146.855 138.522 143.39 138.522H142.647L142.076 139.093H140.077L137.392 152.402H130.995L138.306 115.846H147.731ZM142.647 134.524C144.856 134.524 146.531 133.838 147.674 132.468C148.816 131.097 149.635 129.155 150.13 126.641C150.587 124.433 150.53 122.757 149.959 121.615C149.387 120.434 148.036 119.844 145.903 119.844H143.904L140.991 134.524H142.647ZM145.675 152.402C146.094 148.747 145.922 145.891 145.161 143.834C144.437 141.74 143.085 140.064 141.105 138.808L141.219 136.466C143.847 136.466 146.036 137.132 147.788 138.465C149.578 139.76 150.834 141.607 151.558 144.006C152.32 146.405 152.51 149.204 152.129 152.402H145.675Z" fill="#B9E425"/>
<path d="M124.94 120.415L118.543 152.402H112.145L118.543 120.415H110.317L111.231 115.846H134.079L133.165 120.415H124.94Z" fill="#B9E425"/>
<path d="M84.0804 115.615H103.73L102.816 120.185H89.5639L86.9364 133.437H97.1037L96.1898 138.006H86.0224L84.0804 147.602H97.9034L96.9894 152.172H76.769L84.0804 115.615Z" fill="white"/>
<path d="M64.4313 152.686C61.1945 152.686 58.7384 152.058 57.0628 150.801C55.3873 149.544 54.3782 147.526 54.0355 144.746C53.6928 141.928 53.9974 138.158 54.9494 133.437C55.8633 128.905 56.9867 125.326 58.3195 122.698C59.6523 120.032 61.3468 118.128 63.4031 116.986C65.4594 115.806 68.0489 115.215 71.1714 115.215C73.3801 115.215 75.5125 115.52 77.5688 116.129L76.2551 120.242C74.9984 119.937 73.6276 119.785 72.1425 119.785C69.8577 119.785 68.0679 120.28 66.7732 121.27C65.4785 122.222 64.4694 123.707 63.7459 125.725C63.0223 127.706 62.2607 130.619 61.4611 134.465C60.7375 138.197 60.3187 140.976 60.2044 142.804C60.1283 144.594 60.49 145.927 61.2897 146.803C62.1275 147.678 63.6316 148.116 65.8022 148.116C67.3634 148.116 69.0199 147.888 70.7716 147.431L71.1143 151.772C69.0199 152.381 66.7922 152.686 64.4313 152.686Z" fill="white"/>
<path d="M24.1616 152.172C26.1418 145.051 28.4456 138.33 31.0731 132.009C33.7387 125.687 36.6137 120.223 39.6982 115.615H45.6387C47.0476 120.261 47.8473 125.744 48.0377 132.066C48.2281 138.387 47.8473 145.089 46.8953 152.172H40.3265C41.2404 145.241 41.7736 138.958 41.9259 133.322C42.0782 127.687 41.8116 122.908 41.1262 118.985L43.2396 119.442C41.031 123.403 38.8604 128.182 36.728 133.779C34.5955 139.377 32.6153 145.508 30.7875 152.172H24.1616ZM45.6387 138.463L44.7247 143.033H30.1021L31.016 138.463H45.6387Z" fill="white"/>
<path d="M16.7361 115.615C20.1252 115.615 22.6194 116.701 24.2188 118.871C25.8562 121.042 26.2751 124.069 25.4754 127.953C24.79 131.38 23.3049 133.97 21.0201 135.721C18.7353 137.435 15.8603 138.292 12.395 138.292H11.6524L11.0812 138.863H9.08204L6.39741 152.172H0L7.31133 115.615H16.7361ZM11.6524 134.293C13.8611 134.293 15.5366 133.608 16.679 132.237C17.8214 130.866 18.6401 128.924 19.1351 126.411C19.5921 124.202 19.535 122.527 18.9638 121.384C18.3926 120.204 17.0407 119.614 14.9083 119.614H12.9091L9.99596 134.293H11.6524ZM14.6798 152.172C15.0987 148.516 14.9273 145.66 14.1657 143.604C13.4422 141.51 12.0904 139.834 10.1102 138.577L10.2244 136.235C12.8519 136.235 15.0415 136.902 16.7932 138.235C18.583 139.529 19.8396 141.376 20.5631 143.775C21.3247 146.174 21.5151 148.973 21.1343 152.172H14.6798Z" fill="white"/>
<g clip-path="url(#clip0_53_2)">
<path d="M156.485 50.4851C154.781 50.256 153.056 50.7132 151.689 51.7561C150.322 52.7991 149.425 54.3423 149.196 56.0464C148.967 57.7504 149.424 59.4757 150.467 60.8426C151.51 62.2096 153.053 63.1063 154.757 63.3354C156.461 63.5645 158.186 63.1073 159.553 62.0644C160.92 61.0215 161.817 59.4782 162.046 57.7742C162.275 56.0701 161.818 54.3448 160.775 52.9779C159.732 51.6109 158.189 50.7143 156.485 50.4851ZM125.844 59.4478C124.238 59.2318 119.419 58.5839 121.984 63.8347L128.071 79.3711L116.827 77.8593C115.045 77.6393 113.419 78.0552 111.792 78.8176C107.589 70.8674 102.706 73.0301 97.616 75.2762C94.8133 76.5151 91.9421 77.7774 89.0884 77.4002C88.6648 77.3564 88.2403 77.4758 87.9017 77.7342C87.5631 77.9925 87.3358 78.3704 87.2662 78.7905C87.2223 79.2142 87.3418 79.6386 87.6001 79.9773C87.8585 80.3159 88.2363 80.5432 88.6565 80.6128C91.0551 81.0661 93.9219 80.7124 96.7896 80.3523C101.154 79.8075 105.505 79.2674 108.174 81.6017C107.408 82.722 105.894 86.2011 105.462 89.4137L104.144 99.1139C102.645 100.247 101.603 99.5768 100.544 98.8914C99.7005 98.3528 98.8378 97.8117 97.7407 98.1875L88.767 116.278C88.5511 117.884 91.0312 118.558 91.9364 117.031L98.2723 106.396C103.078 107.042 113.372 103.56 117.448 97.5666L142.285 107.447L156.188 125.67C157.283 127.106 160.29 125.319 159.476 123.594L149.574 101.886L164.584 87.5511C165.745 90.978 167.332 91.1913 170.487 91.6155L170.577 91.6276L173.784 96.9648C175.858 100.416 181.629 97.9738 179.999 94.5298L171.42 77.2847L172.737 75.5648C173.297 74.4169 170.902 71.5503 169.956 71.9203L155.81 79.8302L147.464 63.578C147.213 63.1624 146.872 62.8084 146.466 62.5421C146.061 62.2759 145.6 62.1041 145.119 62.0395L125.844 59.4478ZM146.388 76.928L148.953 82.1788L129.802 92.1369C129.418 92.3384 128.997 92.4608 128.565 92.4967C128.133 92.5327 127.698 92.4816 127.286 92.3465C126.874 92.2113 126.493 91.9948 126.166 91.7099C125.839 91.4249 125.573 91.0772 125.383 90.6874C125.193 90.2977 125.083 89.8737 125.059 89.4406C125.036 89.0076 125.1 88.5743 125.247 88.1663C125.394 87.7584 125.622 87.3841 125.916 87.0657C126.211 86.7473 126.566 86.4912 126.961 86.3126L146.388 76.928Z" fill="#B9E425"/>
</g>
<path d="M59.486 111.278C55.7548 97.6888 56.1541 83.2962 60.6328 69.9344C65.1115 56.5727 73.467 44.847 84.6344 36.2514L91.1273 44.687C81.635 51.9932 74.5329 61.9601 70.7259 73.3176C66.919 84.675 66.5797 96.9088 69.7511 108.46L59.486 111.278Z" fill="#E0E1E3"/>
<path d="M87.6268 34.07C97.1715 27.4867 108.184 23.3423 119.701 21.9993L120.934 32.5727C111.144 33.7142 101.784 37.237 93.6708 42.8328L87.6268 34.07Z" fill="#E3E2E0"/>
<path d="M122.955 21.5932C129.058 21.1126 135.199 21.4238 141.222 22.5193L139.318 32.9926C134.198 32.0615 128.978 31.7969 123.79 32.2054L122.955 21.5932Z" fill="#E3E2E0"/>
<defs>
<clipPath id="clip0_53_2">
<rect width="97.2442" height="97.2442" fill="white" transform="translate(93.0977 35.4209) rotate(7.65792)"/>
</clipPath>
</defs>
</svg>
